<svg width="2048" height="2048" viewBox="0 0 2048 2048" fill="none" xmlns="http://www.w3.org/2000/svg">
<path d="M1792 896H1920V2048H1792V896ZM512 1344L640 1216V2048H512V1344ZM256 1600L384 1472V2048H256V1600ZM768 1088L896 960V2048H768V1088ZM1024 960L1152 1088V2047H1024V960ZM1344 1280L1408 1216V2048H1280V1216L1344 1280ZM1536 1088L1664 960V2048H1536V1088ZM0 1856L128 1728V2048H0V1856ZM2048 256V768H1920V475L1344 1050L960 666L0 1627V1445L960 486L1344 870L1829 384H1536V256H2048Z" fill="white"/>
</svg>
